<svg xmlns="http://www.w3.org/2000/svg" viewBox="0 0 420 220" role="img" aria-labelledby="title desc">
  <title id="title">Axelhöjningar</title>
  <desc id="desc">Simple shoulder raise exercise illustration.</desc>
  <rect width="420" height="220" fill="#fbf8ff"/>
  <circle cx="210" cy="104" r="82" fill="#f0eafb"/>
  <g transform="translate(82 38)">
    <circle cx="50" cy="26" r="18" fill="#f0c7a8"/>
    <path d="M24 84c9-26 42-26 52 0l8 70H16l8-70Z" fill="#5541d8"/>
    <path d="M28 92 8 58M72 92l20-34" stroke="#5541d8" stroke-width="12" stroke-linecap="round"/>
    <path d="M34 154v34M66 154v34" stroke="#2b2356" stroke-width="10" stroke-linecap="round"/>
    <path d="M30 28c5-20 35-20 40 0" fill="none" stroke="#8a6a54" stroke-width="10" stroke-linecap="round"/>
    <path d="M34 26c8 9 24 9 32 0" fill="none" stroke="#4a3350" stroke-width="3" stroke-linecap="round"/>
  </g>
  <path d="M195 106h42m0 0-14-14m14 14-14 14" fill="none" stroke="#5541d8" stroke-width="8" stroke-linecap="round" stroke-linejoin="round"/>
  <g transform="translate(260 38)">
    <circle cx="50" cy="26" r="18" fill="#f0c7a8"/>
    <path d="M24 84c9-26 42-26 52 0l8 70H16l8-70Z" fill="#5541d8"/>
    <path d="M28 92 8 112M72 92l20 20" stroke="#5541d8" stroke-width="12" stroke-linecap="round"/>
    <path d="M34 154v34M66 154v34" stroke="#2b2356" stroke-width="10" stroke-linecap="round"/>
    <path d="M30 28c5-20 35-20 40 0" fill="none" stroke="#8a6a54" stroke-width="10" stroke-linecap="round"/>
    <path d="M34 26c8 9 24 9 32 0" fill="none" stroke="#4a3350" stroke-width="3" stroke-linecap="round"/>
  </g>
</svg>
